<?xml version="1.0" encoding="utf-8"?>
<!-- Generator: Adobe Illustrator 19.2.1, SVG Export Plug-In . SVG Version: 6.00 Build 0)  -->
<svg version="1.1" id="Layer_1" xmlns="http://www.w3.org/2000/svg" xmlns:xlink="http://www.w3.org/1999/xlink" x="0px" y="0px"
	 viewBox="0 0 30 48" style="enable-background:new 0 0 30 48;" xml:space="preserve">
<style type="text/css">
	.st0{fill:#003F7F;}
	.st1{fill:#FFFFFF;}
</style>
<path class="st0" d="M15,48c-1.1-5.4-3.1-9.9-5.4-14C7.8,30.9,5.8,28,3.9,25c-0.6-1-1.2-2.1-1.8-3.1c-1.2-2.1-2.2-4.5-2.1-7.6
	c0.1-3,1-5.5,2.2-7.5c2.1-3.3,5.7-6,10.4-6.7c3.9-0.6,7.5,0.4,10.1,1.9c2.1,1.2,3.7,2.8,5,4.8c1.3,2,2.2,4.4,2.3,7.5
	c0,1.6-0.2,3-0.6,4.3c-0.4,1.2-1,2.3-1.5,3.4c-1,2.1-2.4,4.1-3.7,6.1C20.3,33.8,16.6,39.8,15,48L15,48z"/>
<ellipse class="st1" cx="15" cy="14.3" rx="5.3" ry="5.2"/>
</svg>
